<svg width="15" height="17" viewBox="0 0 15 17" fill="none" xmlns="http://www.w3.org/2000/svg">
<path d="M0.0626953 8.42348C0.0622852 9.90811 0.406055 11.3574 1.05961 12.635L0 17L3.95924 15.8287C5.05014 16.4998 6.27838 16.8536 7.52818 16.8542H7.53141C11.6475 16.8542 14.9982 13.0748 15 8.43022C15.0007 6.17931 14.2245 4.06266 12.8145 2.4704C11.4043 0.878338 9.52928 0.000925541 7.53141 0C3.41461 0 0.0643359 3.77885 0.0626953 8.42348ZM2.42057 12.4149L2.27273 12.1502C1.65129 11.0353 1.32328 9.74693 1.32375 8.42401C1.32504 4.56351 4.10965 1.42269 7.53375 1.42269C9.19195 1.42348 10.7503 2.15281 11.9224 3.47607C13.0945 4.79946 13.7394 6.55865 13.739 8.42969C13.7375 12.2902 10.9528 15.4314 7.53141 15.4314H7.52895C6.4149 15.4307 5.3223 15.0932 4.36945 14.4553L4.1427 14.3036L1.7932 14.9986L2.42057 12.4149Z" fill="#5F84FC"/>
</svg>
