<svg width="11" height="9" viewBox="0 0 11 9" fill="none" xmlns="http://www.w3.org/2000/svg">
<path d="M2.7966 0.418096C2.59384 0.0205487 2.38046 0.0125269 2.18765 0.005555C2.02976 -0.000442325 1.84927 7.66128e-06 1.66895 7.66128e-06C1.48846 7.66128e-06 1.1952 0.059906 0.947325 0.298674C0.699192 0.537668 0 1.11521 0 2.28986C0 3.46451 0.969844 4.5998 1.10504 4.75926C1.24041 4.91841 2.97734 7.4061 5.72822 8.36312C8.01445 9.15844 8.4797 9.00026 8.97588 8.96038C9.47214 8.92065 10.5772 8.38299 10.8026 7.82546C11.0282 7.26801 11.0282 6.79018 10.9606 6.69032C10.893 6.59084 10.7125 6.53109 10.4418 6.41174C10.1712 6.2924 8.84051 5.71471 8.59246 5.63502C8.34433 5.5554 8.16392 5.51567 7.98343 5.75474C7.80294 5.99343 7.28466 6.53109 7.12669 6.69032C6.96889 6.84992 6.81091 6.86979 6.54035 6.75037C6.26953 6.63057 5.39792 6.37876 4.36383 5.56545C3.55927 4.93258 3.01609 4.15105 2.85821 3.91199C2.70032 3.67329 2.84129 3.5439 2.977 3.42493C3.09861 3.31795 3.24774 3.14613 3.38319 3.00677C3.51814 2.86733 3.56318 2.76785 3.65342 2.60862C3.74375 2.44924 3.69854 2.3098 3.63099 2.19038C3.56318 2.07096 3.03725 0.89016 2.7966 0.418096Z" fill="#5F84FC"/>
</svg>
