<svg width="26" height="21" viewBox="0 0 26 21" fill="none" xmlns="http://www.w3.org/2000/svg">
<path d="M12.9615 11.449C13.4535 11.449 13.899 11.2265 14.403 10.7105L24.598 0.6205C24.1645 0.199 23.356 0 22.196 0H3.328C2.3435 0 1.6525 0.1875 1.2655 0.574L11.5195 10.711C12.0235 11.2145 12.481 11.449 12.9615 11.449ZM0.293 18.3045L8.578 10.113L0.27 1.9215C0.094 2.25 0 2.8125 0 3.621V16.5585C0 17.3905 0.1055 17.9765 0.293 18.3045ZM25.606 18.293C25.7815 17.953 25.876 17.3785 25.876 16.558V3.6215C25.876 2.8365 25.7935 2.2735 25.6175 1.9575L17.344 10.113L25.606 18.293ZM3.68 20.1905H22.547C23.532 20.1905 24.2115 20.003 24.598 19.628L16.1605 11.2615L15.3755 12.0465C14.5785 12.82 13.817 13.1715 12.9615 13.1715C12.106 13.1715 11.344 12.82 10.5475 12.0465L9.7625 11.2615L1.336 19.617C1.781 20.0035 2.5665 20.1905 3.68 20.1905Z" fill="#5F84FC" fill-opacity="0.2"/>
</svg>
