<svg width="75" height="50" viewBox="0 0 75 50" fill="none" xmlns="http://www.w3.org/2000/svg">
<path d="M5.82289 0L3.75423 9.88137C2.86254 14.1638 3.58795 18.5764 5.82289 22.4392H14.1415V0H5.82289ZM17.0106 0V16.7245H17.4833C18.494 16.7245 19.3091 15.9867 19.3091 15.0897V0H17.0106ZM22.1945 0V15.0897C22.1945 17.39 20.0916 19.2564 17.4833 19.2564H17.0106V31.0764H19.4395V22.4392H22.6346C22.6346 22.4392 23.8735 20.2257 24.8516 18.4317C25.6178 17.1007 27.1501 16.2471 28.8455 16.2471H41.9192C44.3645 16.2471 46.3532 17.9977 46.3532 20.1678V33.4057H0L1.72307 43.316H69.9578L71.6694 34.1869L68.2298 0H22.1945ZM72.7453 3.38542C71.9466 3.44329 71.3597 4.06539 71.4412 4.75984L72.1422 11.6175C72.2074 12.3119 72.9083 12.8328 73.6908 12.7749C74.4896 12.717 75.0601 12.0804 74.9949 11.386L74.3103 4.54282C74.2451 3.89178 73.6256 3.38542 72.892 3.38542H72.7453ZM58.5956 3.39988C62.1331 3.39988 64.9858 5.93171 64.9858 9.07118C64.9858 12.2106 62.1331 14.7425 58.5956 14.7425C55.0582 14.7425 52.2055 12.2106 52.2055 9.07118C52.2055 5.93171 55.0582 3.39988 58.5956 3.39988ZM58.5956 5.93171C56.6558 5.93171 55.0582 7.34954 55.0582 9.07118C55.0582 10.8073 56.6558 12.2106 58.5956 12.2106C60.5355 12.2106 62.1331 10.8073 62.1331 9.07118C62.1331 7.34954 60.5355 5.93171 58.5956 5.93171ZM58.5956 18.9381C62.9318 18.9381 66.453 22.0775 66.453 25.9115C66.453 29.7598 62.9318 32.8848 58.5956 32.8848C54.2595 32.8848 50.7383 29.7598 50.7383 25.9115C50.7383 22.0775 54.2595 18.9381 58.5956 18.9381ZM58.5956 21.4844C55.8407 21.4844 53.6074 23.4664 53.6074 25.9115C53.6074 28.3565 55.8407 30.3241 58.5956 30.3241C61.3506 30.3241 63.5676 28.3565 63.5676 25.9115C63.5676 23.4664 61.3506 21.4844 58.5956 21.4844ZM10.8829 24.3056V26.8519H14.1578V24.3056H10.8829ZM1.72307 46.1661V50H69.9252V46.1661H1.72307Z" fill="white"/>
</svg>
