<svg width="75" height="50" viewBox="0 0 75 50" fill="none" xmlns="http://www.w3.org/2000/svg">
<path d="M75 0L61.9884 10.2139L74.435 27.6395L75 27.0552V0ZM0 0.149014V29.7542C0.705882 29.8305 1.55404 29.8726 2.40993 29.88C4.2802 29.8964 5.8218 29.7948 6.68776 29.7301L14.9842 12.2685L0 0.149014ZM61.3163 13.8918L60.207 14.4889C60.1834 14.5016 59.3622 14.9261 59.121 15.0512L57.45 15.8925L57.4736 15.9043C56.6994 16.305 56.4841 16.4177 55.6054 16.8716C55.1595 17.1018 55.1485 17.1072 54.7256 17.3257C51.5286 15.8962 48.0597 14.7976 44.0116 13.9336C38.9204 15.213 33.527 17.0643 28.1415 18.8014C30.3774 21.0408 32.8621 21.77 35.365 21.7961C38.2673 21.8262 41.2342 20.7764 43.2775 19.6003L44.4435 18.9293L45.6135 20.3356L63.8047 31.2567L70.9127 27.3266L61.3163 13.8918ZM17.092 14.2509L9.9438 29.2947L12.5672 30.9727L17.4194 26.3981L17.8081 26.0318L18.3942 26.0014C18.6306 25.989 18.8638 25.9834 19.0938 25.9843C20.7028 25.993 22.1414 26.3403 23.2204 27.1324C24.0195 27.7185 24.5508 28.4988 24.859 29.4023L25.2183 29.3837C27.1082 29.2854 28.811 29.6098 30.0444 30.5147C31.2777 31.42 31.8769 32.7851 31.9951 34.3574L32.0061 34.4989C33.0208 34.6583 33.9291 34.9907 34.6678 35.5327C35.9012 36.4378 36.5003 37.8026 36.6184 39.375L36.6495 39.7839C36.7502 39.8104 36.85 39.8392 36.9488 39.8701L37.2692 39.4962L38.131 38.4899L38.5743 37.9722L39.7292 38.6568L49.0929 44.2052C50.1113 43.9963 50.7184 43.6712 51.0561 43.2766C51.3944 42.8818 51.5655 42.2976 51.4695 41.4277L40.2419 34.7398L39.0889 34.0531L39.9066 33.1034L40.9576 31.876L42.1125 32.5606L54.7703 40.0605C55.7888 39.8517 56.3964 39.5266 56.734 39.132C57.0718 38.7375 57.243 38.1547 57.1476 37.2864L42.5891 28.6955L41.4326 28.0127L43.0735 26.0888L44.2305 26.7713L58.7915 35.3642C59.8109 35.1553 60.4186 34.8301 60.7568 34.4352C61.0952 34.0401 61.2662 33.4554 61.1696 32.584L43.7683 22.1374C41.4592 23.276 38.5054 24.1882 35.3297 24.1551C31.6133 24.1165 27.638 22.6393 24.7136 18.9062C24.5979 18.7586 24.5235 18.5913 24.4958 18.4166C24.468 18.2419 24.4877 18.0643 24.5534 17.8967C24.619 17.7292 24.7289 17.576 24.8751 17.4485C25.0212 17.3209 25.1999 17.2222 25.3979 17.1596C27.4484 16.5115 29.5202 15.8268 31.5969 15.1473L17.0923 14.2517L17.092 14.2509ZM19.1248 28.3554L11.6305 35.4208C11.7766 36.3049 12.1095 36.8548 12.5581 37.1841C13.0067 37.5133 13.7044 37.7194 14.7772 37.7298L22.2714 30.6647C22.1253 29.7804 21.7924 29.2302 21.3438 28.901C20.8952 28.5718 20.1978 28.3656 19.1248 28.3554ZM25.9486 31.738L17.4854 39.7169C17.6313 40.6011 17.9644 41.1513 18.4128 41.4805C18.8619 41.8095 19.5591 42.0157 20.6321 42.0257L29.0953 34.0472C28.9494 33.1628 28.6163 32.6129 28.1677 32.2835C27.7191 31.9542 27.0216 31.7484 25.9486 31.738ZM30.5715 36.7558L23.0778 43.8211C23.2238 44.7052 23.5568 45.2553 24.0054 45.5846C24.4541 45.9139 25.1516 46.1197 26.2245 46.1301L33.7185 39.0655C33.5724 38.1809 33.2395 37.6308 32.7909 37.3015C32.3423 36.9723 31.6445 36.7661 30.5715 36.7558ZM34.4636 41.885L28.3511 47.6883C28.4968 48.5742 28.8298 49.1249 29.2788 49.4544C29.7271 49.7834 30.4238 49.9894 31.4953 50L37.6081 44.1967C37.4622 43.311 37.1291 42.7603 36.68 42.4306C36.2319 42.1016 35.535 41.8957 34.4636 41.885ZM40.0322 42.5128C40.2991 43.1182 40.4534 43.7893 40.5071 44.5038L40.5436 44.9892L39.2395 46.2275L43.4502 48.7224C44.4687 48.5135 45.0756 48.1884 45.4134 47.7938C45.7514 47.3993 45.9228 46.8155 45.8275 45.9468L40.0322 42.5128Z" fill="white"/>
</svg>
