<svg width="75" height="50" viewBox="0 0 75 50" fill="none" xmlns="http://www.w3.org/2000/svg">
<path fill-rule="evenodd" clip-rule="evenodd" d="M40.8461 6.81818V0H34.1539V6.81818H37.5C29.0693 6.81818 20.9838 9.09293 15.0224 13.142C9.06093 17.1911 5.71183 22.6828 5.71183 28.4091C5.71183 34.1354 9.06093 39.6271 15.0224 43.6762C20.9838 47.7252 29.0693 50 37.5 50C45.9307 50 54.0162 47.7252 59.9776 43.6762C65.9391 39.6271 69.2882 34.1354 69.2882 28.4091C69.2882 22.6828 65.9391 17.1911 59.9776 13.142C54.0162 9.09293 45.9307 6.81818 37.5 6.81818H40.8461ZM4.73142 14.1068L19.789 3.87955L15.0576 0.665909L0 10.8932L4.73142 14.1068ZM55.211 3.87955L70.2686 14.1068L75 10.8932L59.9424 0.665909L55.211 3.87955ZM34.1539 15.9091V29.5455H49.2114V25H40.8461V15.9091H34.1539Z" fill="white"/>
</svg>
